<?xml version="1.0" standalone="no"?><!DOCTYPE svg PUBLIC "-//W3C//DTD SVG 1.1//EN" "http://www.w3.org/Graphics/SVG/1.1/DTD/svg11.dtd"><svg t="1648887857876" class="icon" viewBox="0 0 1024 1024" version="1.1" xmlns="http://www.w3.org/2000/svg" p-id="8732" xmlns:xlink="http://www.w3.org/1999/xlink" width="200" height="200"><defs><style type="text/css">@font-face { font-family: feedback-iconfont; src: url("//at.alicdn.com/t/font_1031158_u69w8yhxdu.woff2?t=1630033759944") format("woff2"), url("//at.alicdn.com/t/font_1031158_u69w8yhxdu.woff?t=1630033759944") format("woff"), url("//at.alicdn.com/t/font_1031158_u69w8yhxdu.ttf?t=1630033759944") format("truetype"); }
</style></defs>
<g fill="white" class="ggg">
<path d="M827.934 553.6c2.12-12.47 2.12-27.036 2.12-41.6s-2.12-27.036-2.12-41.6l89.334-68.636c8.52-6.236 10.638-16.634 4.26-27.036L836.43 231.2c-4.258-8.328-17.014-12.47-25.534-8.328l-106.372 41.602c-21.276-16.636-46.788-31.202-72.32-41.602l-14.896-110.234c-2.12-8.308-10.638-16.636-21.276-16.636h-170.196c-10.636 0-19.154 8.328-21.274 16.636l-17.016 110.234c-25.534 10.4-48.928 24.964-72.342 41.602l-106.372-41.602c-10.638-4.142-21.276 0-25.534 8.328L98.2 374.73c-4.238 8.306-2.122 20.798 4.258 27.036L193.94 470.4c0 14.564-2.12 27.036-2.12 41.6s2.12 27.036 2.12 41.6l-89.336 68.636c-8.52 6.236-10.636 16.634-4.26 27.036L185.442 792.8c4.26 8.328 17.016 12.47 25.534 8.328l106.374-41.602c21.274 16.636 46.788 31.202 72.32 41.602l17.016 110.234c2.138 10.4 10.636 16.636 21.274 16.636h170.196c10.638 0 19.156-8.328 21.276-16.636l17.036-110.234c25.514-10.4 48.928-24.964 72.32-41.602l106.374 41.602c10.636 4.142 21.274 0 25.534-8.328l85.098-143.53c4.258-8.306 2.12-20.798-4.26-27.036l-93.6-68.634z m-316.998 104c-82.978 0-148.92-64.47-148.92-145.6s65.942-145.6 148.92-145.6 148.922 64.47 148.922 145.6-65.944 145.6-148.922 145.6z" p-id="8733"></path>
</g>
</svg>