<?xml version="1.0" standalone="no"?><!DOCTYPE svg PUBLIC "-//W3C//DTD SVG 1.1//EN" "http://www.w3.org/Graphics/SVG/1.1/DTD/svg11.dtd"><svg t="1648653499394" class="icon" viewBox="0 0 1024 1024" version="1.1" xmlns="http://www.w3.org/2000/svg" p-id="1175" data-darkreader-inline-fill="" xmlns:xlink="http://www.w3.org/1999/xlink" width="200" height="200"><defs><style type="text/css">@font-face { font-family: feedback-iconfont; src: url("//at.alicdn.com/t/font_1031158_u69w8yhxdu.woff2?t=1630033759944") format("woff2"), url("//at.alicdn.com/t/font_1031158_u69w8yhxdu.woff?t=1630033759944") format("woff"), url("//at.alicdn.com/t/font_1031158_u69w8yhxdu.ttf?t=1630033759944") format("truetype"); }
</style></defs><path d="M812.6 96.4c-9.4 1.8-404 78.4-412.4 80-8.4 1.6-16.2 7.2-16.2 16v480.2c0 3.2-0.2 14.4-4.8 23.4-6.2 11.8-17 20.4-32.2 25.4-6.6 2.2-15.6 4.2-26.2 6.6-48.2 10.8-128.8 29.2-128.8 103.6 0 62.2 44.8 90.2 83.4 95 4.2 0.6 9 1.4 14.2 1.4 13.4 0 72-6.6 102.4-26.4 22-14.4 48.2-42.8 48.2-95.6V381c0-7.6 5.4-14.2 12.8-15.6l304-61.4c10-2 19.2 5.6 19.2 15.6v261.8c0 8.2-0.4 17.8-5 26.8-6.2 11.8-17 20.4-32.4 25.4-6.6 2.2-17.6 4.2-28.2 6.6-48.2 10.8-128.8 29-128.8 103.4 0 67.4 50.8 94.4 83.6 96.6 13 0.8 22.4 0.6 38.8-1.8s47-11 73-26c35.8-20.6 55-53.6 55-96.4V111.8c-0.2-8.8-7.6-17.8-19.6-15.4z" p-id="1176"></path></svg>